<?xml version="1.0" encoding="UTF-8" standalone="no"?>
<svg
   xmlns:dc="http://purl.org/dc/elements/1.1/"
   xmlns:cc="http://creativecommons.org/ns#"
   xmlns:rdf="http://www.w3.org/1999/02/22-rdf-syntax-ns#"
   xmlns:svg="http://www.w3.org/2000/svg"
   xmlns="http://www.w3.org/2000/svg"
   width="450"
   height="450"
   viewBox="0 0 119.0625 119.0625"
   version="1.1"
   id="svg8">
  <defs
     id="defs2" />
  <metadata
     id="metadata5">
    <rdf:RDF>
      <cc:Work
         rdf:about="">
        <dc:format>image/svg+xml</dc:format>
        <dc:type
           rdf:resource="http://purl.org/dc/dcmitype/StillImage" />
        <dc:title></dc:title>
      </cc:Work>
    </rdf:RDF>
  </metadata>
  <g
     id="layer1"
     transform="translate(89.958326,-28.258914)">
    <rect
       style="fill:none;stroke:#d40000;stroke-width:5.64444"
       x="-256.00992"
       y="-141.95801"
       width="76.200005"
       height="111.2774"
       ry="8.0633707"
       id="rect4566" />
    <rect
       style="fill:#ff0000;stroke:#d40000;stroke-width:3.61244"
       x="-228.27057"
       y="-147.40771"
       width="22.448803"
       height="2.838309"
       ry="1.4191828"
       id="rect4568" />
    <rect
       style="fill:#d40000;stroke-width:0.282222"
       x="-247.94626"
       y="-60.920712"
       width="60.073826"
       height="20.158852"
       ry="0"
       id="rect4570" />
    <rect
       style="fill:none;stroke:#aa4400;stroke-width:5.64444"
       x="-158.10448"
       y="-141.95801"
       width="76.200005"
       height="111.2774"
       ry="8.0633707"
       id="rect4572" />
    <rect
       style="fill:none;stroke:#aa4400;stroke-width:3.61244"
       x="-130.36768"
       y="-147.40771"
       width="22.448803"
       height="2.838309"
       ry="1.4191828"
       id="rect4574" />
    <rect
       style="fill:#aa4400;stroke-width:0.282222"
       x="-150.0414"
       y="-60.920712"
       width="60.073826"
       height="20.158852"
       ry="0"
       id="rect4576" />
    <rect
       style="fill:#aa4400;stroke-width:0.282222"
       x="-150.0414"
       y="-84.681"
       width="60.073826"
       height="20.158852"
       ry="0"
       id="rect4578" />
    <g
       transform="matrix(0.28222223,0,0,0.28222223,-295.92404,-277.48592)"
       id="g4602">
      <rect
         style="fill:none;stroke:#00a900;stroke-width:20"
         x="1182.1"
         y="480.22"
         width="270"
         height="394.29001"
         ry="28.570999"
         id="rect4590" />
      <rect
         style="fill:none;stroke:#00a900;stroke-width:12.8"
         x="1280.4"
         y="460.91"
         width="79.542999"
         height="10.057"
         ry="5.0286002"
         id="rect4592" />
      <rect
         style="fill:#00a900"
         x="1210.7"
         y="767.35999"
         width="212.86"
         height="71.429001"
         ry="0"
         id="rect4594" />
      <rect
         style="fill:#00a900"
         x="1210.7"
         y="683.16998"
         width="212.86"
         height="71.429001"
         ry="0"
         id="rect4596" />
      <rect
         style="fill:#00a900"
         x="1210.7"
         y="598.97998"
         width="212.86"
         height="71.429001"
         ry="0"
         id="rect4598" />
      <rect
         style="fill:#00a900"
         x="1210.7"
         y="514.78998"
         width="212.86"
         height="71.429001"
         ry="0"
         id="rect4600" />
    </g>
    <g
       id="g4938"
       transform="matrix(0.26399667,0,0,0.26399667,-89.958326,28.258914)">
      <path
         id="path4921"
         d="m 38,0.5 h 375 c 20.775,0 37.5,16.725 37.5,37.5 v 375 c 0,20.775 -16.725,37.5 -37.5,37.5 H 38 C 17.225,450.5 0.5,433.775 0.5,413 V 38 C 0.5,17.225 17.225,0.5 38,0.5 Z"
         style="fill:#ffffff;stroke:#000000" />
      <path
         id="path4923"
         d="m 38,13 h 375 c 13.85,0 25,11.15 25,25 v 375 c 0,13.85 -11.15,25 -25,25 H 38 C 24.15,438 13,426.85 13,413 V 38 C 13,24.15 24.15,13 38,13 Z"
         style="fill:#003f87" />
      <path
         id="path4925"
         d="M 302.73,413 V 248.45 H 148.27 V 413 H 74.648 V 38 H 148.27 V 173.45 H 302.73 V 38 h 73.622 v 375 z"
         style="fill:#ffffff" />
    </g>
    <g
       id="g4985"
       transform="matrix(0.98110471,0,0,0.98110471,307.11686,221.52245)">
      <rect
         id="rect4580"
         ry="8.0633707"
         height="111.2774"
         width="76.200005"
         y="-141.95801"
         x="-60.201588"
         style="fill:none;stroke:#ffcc00;stroke-width:5.64444" />
      <rect
         id="rect4582"
         ry="1.4191828"
         height="2.838309"
         width="22.448803"
         y="-147.40771"
         x="-32.461967"
         style="fill:none;stroke:#ffcc00;stroke-width:3.61244" />
      <rect
         id="rect4584"
         ry="0"
         height="20.158852"
         width="60.073826"
         y="-60.920712"
         x="-52.138496"
         style="fill:#ffcc00;stroke-width:0.282222" />
      <rect
         id="rect4586"
         ry="0"
         height="20.158852"
         width="60.073826"
         y="-84.681"
         x="-52.138496"
         style="fill:#ffcc00;stroke-width:0.282222" />
    </g>
  </g>
</svg>
