<?xml version="1.0" encoding="UTF-8"?>
<svg viewBox="0 0 451 451" xmlns="http://www.w3.org/2000/svg">
 <path d="m38,.5h375c20.775,0 37.5,16.725 37.5,37.5v375c0,20.775-16.725,37.5-37.5,37.5h-375c-20.775,0-37.5-16.725-37.5-37.5v-375c0-20.775 16.725-37.5 37.5-37.5z" fill="#fff" stroke="#000"/>
 <path d="m38 13h375c13.85 0 25 11.15 25 25v375c0 13.85-11.15 25-25 25h-375c-13.85 0-25-11.15-25-25v-375c0-13.85 11.15-25 25-25z" fill="#003f87"/>
 <path d="m302.73 413v-164.55h-154.46v164.55h-73.622v-375h73.622v135.45h154.46v-135.45h73.622v375h-73.622z" fill="#fff"/>
</svg>
