<?xml version="1.0" encoding="UTF-8" standalone="no"?>
<!-- Created with Inkscape (http://www.inkscape.org/) -->

<svg
   xmlns:dc="http://purl.org/dc/elements/1.1/"
   xmlns:cc="http://creativecommons.org/ns#"
   xmlns:rdf="http://www.w3.org/1999/02/22-rdf-syntax-ns#"
   xmlns:svg="http://www.w3.org/2000/svg"
   xmlns="http://www.w3.org/2000/svg"
   xmlns:sodipodi="http://sodipodi.sourceforge.net/DTD/sodipodi-0.dtd"
   xmlns:inkscape="http://www.inkscape.org/namespaces/inkscape"
   width="1920"
   height="1080"
   viewBox="0 0 507.99999 285.75001"
   version="1.1"
   id="svg8"
   inkscape:version="0.92.4 (5da689c313, 2019-01-14)"
   sodipodi:docname="hospital-capacity-logo.svg">
  <defs
     id="defs2" />
  <sodipodi:namedview
     id="base"
     pagecolor="#ffffff"
     bordercolor="#666666"
     borderopacity="1.0"
     inkscape:pageopacity="0.0"
     inkscape:pageshadow="2"
     inkscape:zoom="0.35"
     inkscape:cx="-88.571429"
     inkscape:cy="560"
     inkscape:document-units="mm"
     inkscape:current-layer="layer1"
     showgrid="false"
     units="px"
     inkscape:window-width="2256"
     inkscape:window-height="1410"
     inkscape:window-x="-11"
     inkscape:window-y="1609"
     inkscape:window-maximized="1" />
  <metadata
     id="metadata5">
    <rdf:RDF>
      <cc:Work
         rdf:about="">
        <dc:format>image/svg+xml</dc:format>
        <dc:type
           rdf:resource="http://purl.org/dc/dcmitype/StillImage" />
        <dc:title></dc:title>
      </cc:Work>
    </rdf:RDF>
  </metadata>
  <g
     inkscape:label="Layer 1"
     inkscape:groupmode="layer"
     id="layer1"
     transform="translate(0,-11.249983)">
    <rect
       style="fill:none;stroke:#d40000;stroke-width:5.64444447"
       x="-256.00992"
       y="-141.95801"
       width="76.200005"
       height="111.2774"
       ry="8.0633707"
       id="rect4566" />
    <rect
       style="fill:#ff0000;stroke:#d40000;stroke-width:3.61244464"
       x="-228.27057"
       y="-147.40771"
       width="22.448803"
       height="2.838309"
       ry="1.4191828"
       id="rect4568" />
    <rect
       style="fill:#d40000;stroke-width:0.28222224"
       x="-247.94626"
       y="-60.920712"
       width="60.073826"
       height="20.158852"
       ry="0"
       id="rect4570" />
    <rect
       style="fill:none;stroke:#aa4400;stroke-width:5.64444447"
       x="-158.10448"
       y="-141.95801"
       width="76.200005"
       height="111.2774"
       ry="8.0633707"
       id="rect4572" />
    <rect
       style="fill:none;stroke:#aa4400;stroke-width:3.61244464"
       x="-130.36768"
       y="-147.40771"
       width="22.448803"
       height="2.838309"
       ry="1.4191828"
       id="rect4574" />
    <rect
       style="fill:#aa4400;stroke-width:0.28222224"
       x="-150.0414"
       y="-60.920712"
       width="60.073826"
       height="20.158852"
       ry="0"
       id="rect4576" />
    <rect
       style="fill:#aa4400;stroke-width:0.28222224"
       x="-150.0414"
       y="-84.681"
       width="60.073826"
       height="20.158852"
       ry="0"
       id="rect4578" />
    <g
       transform="matrix(0.28222223,0,0,0.28222223,-295.92404,-277.48592)"
       id="g4602">
      <rect
         style="fill:none;stroke:#00a900;stroke-width:20"
         x="1182.1"
         y="480.22"
         width="270"
         height="394.29001"
         ry="28.570999"
         id="rect4590" />
      <rect
         style="fill:none;stroke:#00a900;stroke-width:12.80000019"
         x="1280.4"
         y="460.91"
         width="79.542999"
         height="10.057"
         ry="5.0286002"
         id="rect4592" />
      <rect
         style="fill:#00a900"
         x="1210.7"
         y="767.35999"
         width="212.86"
         height="71.429001"
         ry="0"
         id="rect4594" />
      <rect
         style="fill:#00a900"
         x="1210.7"
         y="683.16998"
         width="212.86"
         height="71.429001"
         ry="0"
         id="rect4596" />
      <rect
         style="fill:#00a900"
         x="1210.7"
         y="598.97998"
         width="212.86"
         height="71.429001"
         ry="0"
         id="rect4598" />
      <rect
         style="fill:#00a900"
         x="1210.7"
         y="514.78998"
         width="212.86"
         height="71.429001"
         ry="0"
         id="rect4600" />
    </g>
    <g
       id="g5021">
      <g
         id="g5008">
        <g
           id="g4996"
           transform="translate(303.89286,29.482143)">
          <g
             transform="matrix(0.26399667,0,0,0.26399667,-185.20833,45.645818)"
             id="g4938">
            <path
               style="fill:#ffffff;stroke:#000000"
               inkscape:connector-curvature="0"
               d="m 38,0.5 h 375 c 20.775,0 37.5,16.725 37.5,37.5 v 375 c 0,20.775 -16.725,37.5 -37.5,37.5 H 38 C 17.225,450.5 0.5,433.775 0.5,413 V 38 C 0.5,17.225 17.225,0.5 38,0.5 Z"
               id="path4921" />
            <path
               style="fill:#003f87"
               inkscape:connector-curvature="0"
               d="m 38,13 h 375 c 13.85,0 25,11.15 25,25 v 375 c 0,13.85 -11.15,25 -25,25 H 38 C 24.15,438 13,426.85 13,413 V 38 C 13,24.15 24.15,13 38,13 Z"
               id="path4923" />
            <path
               style="fill:#ffffff"
               inkscape:connector-curvature="0"
               d="M 302.73,413 V 248.45 H 148.27 V 413 H 74.648 V 38 H 148.27 V 173.45 H 302.73 V 38 h 73.622 v 375 z"
               id="path4925" />
          </g>
          <g
             transform="matrix(0.98110471,0,0,0.98110471,3.2239996,192.04031)"
             id="g4985">
            <rect
               style="fill:none;stroke:#ffcc00;stroke-width:5.64444447"
               x="-60.201588"
               y="-141.95801"
               width="76.200005"
               height="111.2774"
               ry="8.0633707"
               id="rect4580" />
            <rect
               style="fill:none;stroke:#ffcc00;stroke-width:3.61244464"
               x="-32.461967"
               y="-147.40771"
               width="22.448803"
               height="2.838309"
               ry="1.4191828"
               id="rect4582" />
            <rect
               style="fill:#ffcc00;stroke-width:0.28222224"
               x="-52.138496"
               y="-60.920712"
               width="60.073826"
               height="20.158852"
               ry="0"
               id="rect4584" />
            <rect
               style="fill:#ffcc00;stroke-width:0.28222224"
               x="-52.138496"
               y="-84.681"
               width="60.073826"
               height="20.158852"
               ry="0"
               id="rect4586" />
          </g>
        </g>
      </g>
    </g>
  </g>
</svg>
