<?xml version="1.0" encoding="UTF-8" standalone="no"?>
<svg
   xmlns:dc="http://purl.org/dc/elements/1.1/"
   xmlns:cc="http://creativecommons.org/ns#"
   xmlns:rdf="http://www.w3.org/1999/02/22-rdf-syntax-ns#"
   xmlns:svg="http://www.w3.org/2000/svg"
   xmlns="http://www.w3.org/2000/svg"
   id="svg8"
   version="1.1"
   viewBox="0 0 206.89735 119.0625"
   height="450"
   width="781.97424">
  <defs
     id="defs2" />
  <metadata
     id="metadata5">
    <rdf:RDF>
      <cc:Work
         rdf:about="">
        <dc:format>image/svg+xml</dc:format>
        <dc:type
           rdf:resource="http://purl.org/dc/dcmitype/StillImage" />
        <dc:title></dc:title>
      </cc:Work>
    </rdf:RDF>
  </metadata>
  <g
     transform="translate(-118.68453,-75.127959)"
     id="layer1">
    <rect
       id="rect4566"
       ry="8.0633707"
       height="111.2774"
       width="76.200005"
       y="-141.95801"
       x="-256.00992"
       style="fill:none;stroke:#d40000;stroke-width:5.64444" />
    <rect
       id="rect4568"
       ry="1.4191828"
       height="2.838309"
       width="22.448803"
       y="-147.40771"
       x="-228.27057"
       style="fill:#ff0000;stroke:#d40000;stroke-width:3.61244" />
    <rect
       id="rect4570"
       ry="0"
       height="20.158852"
       width="60.073826"
       y="-60.920712"
       x="-247.94626"
       style="fill:#d40000;stroke-width:0.282222" />
    <rect
       id="rect4572"
       ry="8.0633707"
       height="111.2774"
       width="76.200005"
       y="-141.95801"
       x="-158.10448"
       style="fill:none;stroke:#aa4400;stroke-width:5.64444" />
    <rect
       id="rect4574"
       ry="1.4191828"
       height="2.838309"
       width="22.448803"
       y="-147.40771"
       x="-130.36768"
       style="fill:none;stroke:#aa4400;stroke-width:3.61244" />
    <rect
       id="rect4576"
       ry="0"
       height="20.158852"
       width="60.073826"
       y="-60.920712"
       x="-150.0414"
       style="fill:#aa4400;stroke-width:0.282222" />
    <rect
       id="rect4578"
       ry="0"
       height="20.158852"
       width="60.073826"
       y="-84.681"
       x="-150.0414"
       style="fill:#aa4400;stroke-width:0.282222" />
    <g
       id="g4602"
       transform="matrix(0.28222223,0,0,0.28222223,-295.92404,-277.48592)">
      <rect
         id="rect4590"
         ry="28.570999"
         height="394.29001"
         width="270"
         y="480.22"
         x="1182.1"
         style="fill:none;stroke:#00a900;stroke-width:20" />
      <rect
         id="rect4592"
         ry="5.0286002"
         height="10.057"
         width="79.542999"
         y="460.91"
         x="1280.4"
         style="fill:none;stroke:#00a900;stroke-width:12.8" />
      <rect
         id="rect4594"
         ry="0"
         height="71.429001"
         width="212.86"
         y="767.35999"
         x="1210.7"
         style="fill:#00a900" />
      <rect
         id="rect4596"
         ry="0"
         height="71.429001"
         width="212.86"
         y="683.16998"
         x="1210.7"
         style="fill:#00a900" />
      <rect
         id="rect4598"
         ry="0"
         height="71.429001"
         width="212.86"
         y="598.97998"
         x="1210.7"
         style="fill:#00a900" />
      <rect
         id="rect4600"
         ry="0"
         height="71.429001"
         width="212.86"
         y="514.78998"
         x="1210.7"
         style="fill:#00a900" />
    </g>
    <g
       id="g5021">
      <g
         id="g5008">
        <g
           transform="translate(303.89286,29.482143)"
           id="g4996">
          <g
             id="g4938"
             transform="matrix(0.26399667,0,0,0.26399667,-185.20833,45.645818)">
            <path
               id="path4921"
               d="m 38,0.5 h 375 c 20.775,0 37.5,16.725 37.5,37.5 v 375 c 0,20.775 -16.725,37.5 -37.5,37.5 H 38 C 17.225,450.5 0.5,433.775 0.5,413 V 38 C 0.5,17.225 17.225,0.5 38,0.5 Z"
               style="fill:#ffffff;stroke:#000000" />
            <path
               id="path4923"
               d="m 38,13 h 375 c 13.85,0 25,11.15 25,25 v 375 c 0,13.85 -11.15,25 -25,25 H 38 C 24.15,438 13,426.85 13,413 V 38 C 13,24.15 24.15,13 38,13 Z"
               style="fill:#003f87" />
            <path
               id="path4925"
               d="M 302.73,413 V 248.45 H 148.27 V 413 H 74.648 V 38 H 148.27 V 173.45 H 302.73 V 38 h 73.622 v 375 z"
               style="fill:#ffffff" />
          </g>
          <g
             id="g4985"
             transform="matrix(0.98110471,0,0,0.98110471,3.2239996,192.04031)">
            <rect
               id="rect4580"
               ry="8.0633707"
               height="111.2774"
               width="76.200005"
               y="-141.95801"
               x="-60.201588"
               style="fill:none;stroke:#ffcc00;stroke-width:5.64444" />
            <rect
               id="rect4582"
               ry="1.4191828"
               height="2.838309"
               width="22.448803"
               y="-147.40771"
               x="-32.461967"
               style="fill:none;stroke:#ffcc00;stroke-width:3.61244" />
            <rect
               id="rect4584"
               ry="0"
               height="20.158852"
               width="60.073826"
               y="-60.920712"
               x="-52.138496"
               style="fill:#ffcc00;stroke-width:0.282222" />
            <rect
               id="rect4586"
               ry="0"
               height="20.158852"
               width="60.073826"
               y="-84.681"
               x="-52.138496"
               style="fill:#ffcc00;stroke-width:0.282222" />
          </g>
        </g>
      </g>
    </g>
  </g>
</svg>
